<?xml version="1.0" encoding="UTF-8"?>
<svg version="1.1" xmlns="http://www.w3.org/2000/svg" width="198" height="163">
<path d="M0 0 C1.32 0 2.64 0 4 0 C6.10080751 4.20161501 5.18585165 9.68827992 5.18530273 14.30908203 C5.18745489 16.33258209 5.20551133 18.35550526 5.22460938 20.37890625 C5.23657717 28.46115724 4.64366979 36.08244727 3 44 C4.32 43.67 5.64 43.34 7 43 C7.03758423 42.11477661 7.03758423 42.11477661 7.07592773 41.21166992 C7.19200052 38.53673186 7.31467572 35.8621362 7.4375 33.1875 C7.47681641 32.25873047 7.51613281 31.32996094 7.55664062 30.37304688 C7.59853516 29.48037109 7.64042969 28.58769531 7.68359375 27.66796875 C7.72025146 26.84578857 7.75690918 26.0236084 7.79467773 25.17651367 C8 23 8 23 9 20 C10.32 20 11.64 20 13 20 C13.83919398 22.26882087 14.67151724 24.53977027 15.5 26.8125 C15.85771484 27.77639648 15.85771484 27.77639648 16.22265625 28.75976562 C17.27068746 31.64933739 18 33.90076061 18 37 C21.37630174 35.56554407 24.75079959 34.12689105 28.125 32.6875 C29.55199219 32.08131836 29.55199219 32.08131836 31.0078125 31.46289062 C33.67813801 30.3224391 36.34032162 29.16502893 39 28 C40.1859375 27.484375 41.371875 26.96875 42.59375 26.4375 C45.39987427 25.10132417 45.39987427 25.10132417 46.375 21.3125 C46.58125 20.219375 46.7875 19.12625 47 18 C50 19 50 19 51 21 C56.54214366 19.28002438 61.76349374 17.24785964 67.0625 14.875 C72.18716418 12.63191839 76.42193505 11.2231226 82 11 C82 11.99 82 12.98 82 14 C81.06800781 14.36351562 80.13601562 14.72703125 79.17578125 15.1015625 C71.48828155 18.12545435 63.96297623 21.32403354 56.51171875 24.8984375 C54 26 54 26 52 26 C52.24234375 26.52956299 52.4846875 27.05912598 52.734375 27.60473633 C53.828743 30.00471692 54.9144495 32.40851907 56 34.8125 C56.3815625 35.64587891 56.763125 36.47925781 57.15625 37.33789062 C57.5171875 38.14033203 57.878125 38.94277344 58.25 39.76953125 C58.58515625 40.50792236 58.9203125 41.24631348 59.265625 42.00708008 C60 44 60 44 60 47 C61.65 47.33 63.3 47.66 65 48 C64.6596875 49.1446875 64.6596875 49.1446875 64.3125 50.3125 C64.00022929 53.99729435 64.41657851 55.79383643 65.5 59.25 C67.58155295 66.3196061 67.33294846 72.43794044 64.4375 79.25 C61.72612621 84.14636365 57.15334018 88.07480123 51.75 89.66015625 C50.88375 89.82837891 50.88375 89.82837891 50 90 C50.27714844 90.80824219 50.55429688 91.61648437 50.83984375 92.44921875 C51.38318359 94.05216797 51.38318359 94.05216797 51.9375 95.6875 C52.47697266 97.27111328 52.47697266 97.27111328 53.02734375 98.88671875 C54.79655693 104.54962199 55.76218732 110.074262 55 116 C53.11837599 119.4737674 51.95296078 120.65346881 48.25 122 C40.6655401 122 34.39175235 118.11954738 29 113 C18.95074375 101.64564553 15.47884383 88.57076494 13 74 C10.36 74 7.72 74 5 74 C4.82984375 74.63808594 4.6596875 75.27617188 4.484375 75.93359375 C4.24203125 76.75988281 3.9996875 77.58617188 3.75 78.4375 C3.51796875 79.26121094 3.2859375 80.08492188 3.046875 80.93359375 C2 83 2 83 0.078125 83.91015625 C-2 84 -2 84 -5 82 C-6.65 85.96 -8.3 89.92 -10 94 C-11.32 94 -12.64 94 -14 94 C-13.39124245 89.39583374 -12.15277044 85.43516676 -10.4375 81.125 C-9.98246094 79.97257812 -9.52742188 78.82015625 -9.05859375 77.6328125 C-8.70925781 76.76398438 -8.35992187 75.89515625 -8 75 C-8.99 75.33 -9.98 75.66 -11 76 C-23.37088017 77.53414172 -35.93744521 77.11453587 -48.375 77.0625 C-50.4791656 77.05747309 -52.58333236 77.0529123 -54.6875 77.04882812 C-59.79169601 77.03792117 -64.89583479 77.02072272 -70 77 C-70 76.01 -70 75.02 -70 74 C-61.02011491 69.97927741 -51.98009553 66.14619158 -42.84765625 62.484375 C-41.40753677 61.90496155 -41.40753677 61.90496155 -39.93832397 61.31384277 C-35.95981791 59.71365794 -31.98096504 58.11466637 -27.99536133 56.53222656 C-25.04615724 55.35963152 -22.10281046 54.17329362 -19.16015625 52.984375 C-17.79951805 52.44994781 -17.79951805 52.44994781 -16.41139221 51.90472412 C-15.16760048 51.39839447 -15.16760048 51.39839447 -13.89868164 50.88183594 C-13.16750626 50.58984314 -12.43633087 50.29785034 -11.68299866 49.99700928 C-9.64964637 49.04066905 -9.64964637 49.04066905 -9 46 C-8.80788507 44.01620456 -8.61935971 42.03194835 -8.45507812 40.0456543 C-7.30015058 26.41338452 -4.5531583 12.92169463 0 0 Z M0 14 C-2.36836732 24.98599853 -4.58897717 35.73797454 -5 47 C-3.02 46.505 -3.02 46.505 -1 46 C0.93915661 35.23075524 1.22256188 24.90553195 1 14 C0.67 14 0.34 14 0 14 Z M41 32 C41.66 32.66 42.32 33.32 43 34 C44.32 34 45.64 34 47 34 C47 32.35 47 30.7 47 29 C44.23776722 29 43.10718546 30.31425163 41 32 Z M37 34 C34.98079663 35.30406884 32.98075027 36.63823419 31 38 C31 38.33 31 38.66 31 39 C33.97 39.495 33.97 39.495 37 40 C37.99 38.68 38.98 37.36 40 36 C39.01 35.34 38.02 34.68 37 34 Z M12 36 C11.67 37.65 11.34 39.3 11 41 C11.66 40.67 12.32 40.34 13 40 C12.67 38.68 12.34 37.36 12 36 Z M26.19921875 42.64453125 C25.70035156 43.35996094 25.20148438 44.07539062 24.6875 44.8125 C24.17574219 45.52019531 23.66398437 46.22789063 23.13671875 46.95703125 C21.75689486 49.04726827 21.75689486 49.04726827 22 52 C25.15835107 50.60249952 27.32272825 48.94801766 29.75 46.5 C30.36359375 45.8915625 30.9771875 45.283125 31.609375 44.65625 C33.21434088 43.10515723 33.21434088 43.10515723 33 41 C29.23189514 40.59202973 29.23189514 40.59202973 26.19921875 42.64453125 Z M52 39 C50.23537317 42.08809695 50 43.23312136 50 47 C48.125 46.75 48.125 46.75 46 46 C44.75 43.9375 44.75 43.9375 44 42 C40.83884224 43.36983503 40.0072908 43.9890638 38 47 C38.19097942 49.31033938 38.19097942 49.31033938 38.875 51.6875 C39.07867187 52.49574219 39.28234375 53.30398437 39.4921875 54.13671875 C39.65976563 54.75160156 39.82734375 55.36648437 40 56 C44.59808129 55.46105575 47.86784369 54.23428472 51.875 51.9375 C52.84179688 51.38964844 53.80859375 50.84179688 54.8046875 50.27734375 C55.52914062 49.85582031 56.25359375 49.43429688 57 49 C55.68 45.7 54.36 42.4 53 39 C52.67 39 52.34 39 52 39 Z M2 48 C0.98756897 50.48384771 0.98756897 50.48384771 0.515625 53.4453125 C0.30292969 54.52167969 0.09023437 55.59804687 -0.12890625 56.70703125 C-0.33386719 57.83496094 -0.53882812 58.96289062 -0.75 60.125 C-0.97042969 61.26066406 -1.19085938 62.39632812 -1.41796875 63.56640625 C-1.96081093 66.37502451 -2.48739463 69.18573324 -3 72 C-1.35 72 0.3 72 2 72 C5.43505955 59.16902505 5.43505955 59.16902505 7 46 C4.93568924 46 3.68883504 46.88507643 2 48 Z M14 48 C13.24387423 53.23471686 12.7936634 57.77254141 14 63 C14.33 63 14.66 63 15 63 C15.39143394 61.25360243 15.76254287 59.50264082 16.125 57.75 C16.43824219 56.28820312 16.43824219 56.28820312 16.7578125 54.796875 C17.0202996 51.76557234 16.61988849 50.51982654 15 48 C14.67 48 14.34 48 14 48 Z M-4 50 C-5.28612676 51.05978933 -5.28612676 51.05978933 -5.09765625 53.50390625 C-5.08605469 54.51324219 -5.07445313 55.52257812 -5.0625 56.5625 C-5.05347656 57.57441406 -5.04445313 58.58632812 -5.03515625 59.62890625 C-5.02355469 60.41136719 -5.01195313 61.19382812 -5 62 C-3.4521169 59.20625977 -2.69239336 56.92393362 -2.375 53.75 C-2.25125 52.5125 -2.1275 51.275 -2 50 C-2.66 50 -3.32 50 -4 50 Z M34 51 C32.611891 52.80776986 31.26426551 54.64674024 29.9375 56.5 C29.20402344 57.5209375 28.47054687 58.541875 27.71484375 59.59375 C27.14894531 60.3878125 26.58304687 61.181875 26 62 C26.66 62.66 27.32 63.32 28 64 C30.97 62.35 33.94 60.7 37 59 C36.34 56.36 35.68 53.72 35 51 C34.67 51 34.34 51 34 51 Z M-17.37890625 55.59765625 C-18.01907684 55.86765442 -18.65924744 56.13765259 -19.31881714 56.41583252 C-21.40140063 57.29488486 -23.48191937 58.17871908 -25.5625 59.0625 C-27.68582297 59.95989465 -29.80967271 60.85603438 -31.93354797 61.75212097 C-33.33499708 62.34351712 -34.73627338 62.93532291 -36.13737488 63.52754211 C-41.55882805 65.81836015 -46.99201771 68.07934653 -52.4375 70.3125 C-53.127229 70.59552979 -53.81695801 70.87855957 -54.52758789 71.17016602 C-56.01800434 71.78105714 -57.50892441 72.39071948 -59 73 C-59 73.33 -59 73.66 -59 74 C-41.95304579 74.11695715 -25.02657108 73.92661611 -8 73 C-8.33 66.4 -8.66 59.8 -9 53 C-12.10705614 53 -14.52907645 54.38997593 -17.37890625 55.59765625 Z M54.40234375 53.75 C53.68369141 54.1109375 52.96503906 54.471875 52.22460938 54.84375 C51.46986328 55.2253125 50.71511719 55.606875 49.9375 56 C49.17888672 56.3815625 48.42027344 56.763125 47.63867188 57.15625 C45.75821941 58.1023896 43.87899524 59.05096971 42 60 C42.5864581 65.87790964 43.76846443 71.23514128 45.5 76.875 C45.72558594 77.63296875 45.95117188 78.3909375 46.18359375 79.171875 C47.36673946 83.17179867 47.36673946 83.17179867 49 87 C54.63052311 85.6350247 57.71116904 81.48092651 61 77 C64.10558217 71.04763417 63.01792885 64.62704122 61.2578125 58.35546875 C60.55039544 56.21637432 59.80768844 54.10303781 59 52 C57.2865706 52 55.91252421 52.98896418 54.40234375 53.75 Z M9 57 C8.01 61.62 7.02 66.24 6 71 C7.98 70.67 9.96 70.34 12 70 C11.34 65.71 10.68 61.42 10 57 C9.67 57 9.34 57 9 57 Z M28 67 C28.99 73.93 29.98 80.86 31 88 C34.14930893 89.04976964 36.38814456 89.10131595 39.6875 89.0625 C40.68136719 89.05347656 41.67523438 89.04445313 42.69921875 89.03515625 C43.45847656 89.02355469 44.21773437 89.01195313 45 89 C43.38949895 79.77622123 40.71861481 70.94445024 38 62 C34.27322004 62 31.25779182 65.19011566 28 67 Z M20 70 C20.42003079 75.60041053 22.68576989 79.588491 26 84 C26.33 84 26.66 84 27 84 C26.50669135 76.26767987 26.50669135 76.26767987 24 69 C21.9254644 68.8509288 21.9254644 68.8509288 20 70 Z M-3 75 C-2.34 76.32 -1.68 77.64 -1 79 C-0.67 77.68 -0.34 76.36 0 75 C-0.99 75 -1.98 75 -3 75 Z M27 94 C24.525 93.01 24.525 93.01 22 92 C23.25953442 100.94592398 30.01235041 109.49050706 37 115 C41.69705728 118.16741321 41.69705728 118.16741321 47.11328125 118.71875 C49.20258182 118.07012211 49.20258182 118.07012211 51 116 C51.40832474 110.13033179 50.54591027 105.14048343 49 99.5 C48.80921875 98.77296875 48.6184375 98.0459375 48.421875 97.296875 C47.95662755 95.52893469 47.47956407 93.76411067 47 92 C44.22965863 91.75141802 41.46060931 91.52547121 38.6875 91.3125 C37.90181641 91.23966797 37.11613281 91.16683594 36.30664062 91.09179688 C35.54931641 91.03701172 34.79199219 90.98222656 34.01171875 90.92578125 C33.31522217 90.86817627 32.61872559 90.81057129 31.90112305 90.7512207 C29.40690575 91.07761179 28.5788082 92.1101817 27 94 Z " fill="#000000" transform="translate(84,26)"/>
</svg>
