<?xml version="1.0" encoding="UTF-8"?>
<svg version="1.1" xmlns="http://www.w3.org/2000/svg" width="304" height="108">
<path d="M0 0 C0.66 0.33 1.32 0.66 2 1 C2 1.99 2 2.98 2 4 C1.1342334 4.35715088 0.2684668 4.71430176 -0.62353516 5.08227539 C-3.90927715 6.44064761 -7.19300846 7.80368503 -10.47558594 9.16967773 C-11.88271332 9.75416942 -13.29056534 10.33692036 -14.69921875 10.91772461 C-31.85828589 16.83254518 -31.85828589 16.83254518 -46 27 C-46.58335747 29.48391063 -46.58335747 29.48391063 -46 32 C-44.3451862 33.94652907 -44.3451862 33.94652907 -42 35.375 C-41.2575 35.89835937 -40.515 36.42171875 -39.75 36.9609375 C-32.60642556 39.66007216 -23.23160669 35.70594543 -16.125 33.9375 C-13.87809428 33.38212794 -11.63072123 32.82864203 -9.3828125 32.27734375 C-8.39684082 32.03234131 -7.41086914 31.78733887 -6.39501953 31.53491211 C-4 31 -4 31 -2 31 C-1.896875 29.845 -1.79375 28.69 -1.6875 27.5 C-0.89781502 20.265092 0.60744581 13.13793499 2 6 C3.32 6 4.64 6 6 6 C5.35929989 9.79255282 4.71157345 13.583872 4.0625 17.375 C3.88009766 18.45523438 3.69769531 19.53546875 3.50976562 20.6484375 C3.33251953 21.6796875 3.15527344 22.7109375 2.97265625 23.7734375 C2.81031494 24.72653809 2.64797363 25.67963867 2.48071289 26.66162109 C2 29 2 29 1 31 C1.73863281 30.79503906 2.47726563 30.59007813 3.23828125 30.37890625 C9.42462499 28.73602716 15.33108092 27.60513157 21.72265625 27.2109375 C24.16317891 27.07193107 24.16317891 27.07193107 27 26 C33.82216951 25.55264462 39.76171737 26.67199357 46.40625 28.203125 C50.83591783 29.18535569 55.28438468 29.89487431 59.76953125 30.5703125 C62 31 62 31 63 32 C63.27314815 37.73611111 63.27314815 37.73611111 63 40 C62.01 40.99 62.01 40.99 61 42 C58.65976685 41.71917202 56.32694964 41.37531446 54 41 C51.32568351 40.91132284 48.67684955 40.95303773 46 41 C46 41.33 46 41.66 46 42 C49.24998112 42.02909763 52.49992857 42.04683161 55.75 42.0625 C56.67039062 42.07087891 57.59078125 42.07925781 58.5390625 42.08789062 C59.42851562 42.09111328 60.31796875 42.09433594 61.234375 42.09765625 C62.45979004 42.10551147 62.45979004 42.10551147 63.70996094 42.11352539 C65.93968135 42.00299021 67.86133755 41.62055567 70 41 C70.33 41.99 70.66 42.98 71 44 C69.68 44.33 68.36 44.66 67 45 C67 45.66 67 46.32 67 47 C72.52677733 47.19392201 76.75614911 46.7479503 82 45 C82 44.34 82 43.68 82 43 C81.34773437 42.75765625 80.69546875 42.5153125 80.0234375 42.265625 C70.08043158 38.45267288 70.08043158 38.45267288 66 35 C65 32.375 65 32.375 65 30 C67 28 67 28 69.05859375 27.734375 C69.84363281 27.73953125 70.62867188 27.7446875 71.4375 27.75 C72.61119141 27.74226563 72.61119141 27.74226563 73.80859375 27.734375 C76 28 76 28 79 30 C79.1875 32.625 79.1875 32.625 79 35 C78.38125 34.835 77.7625 34.67 77.125 34.5 C75.03936614 33.92365356 75.03936614 33.92365356 73 34 C77.39251833 36.02055843 81.15340923 37.40895235 86 38 C86.37125 36.88625 86.37125 36.88625 86.75 35.75 C88.15101407 32.66776904 89.24972873 30.98630703 92 29 C97.3125 29.3125 97.3125 29.3125 99 31 C99.04092937 33.33297433 99.04241723 35.66705225 99 38 C99.33 38 99.66 38 100 38 C100.99 37.01 100.99 37.01 102 36 C102.99 36 103.98 36 105 36 C104.47561656 40.24548904 102.04557306 42.59003813 99.25 45.6875 C98.38890625 46.66074219 97.5278125 47.63398437 96.640625 48.63671875 C93.90932512 51.08115134 92.63240181 51.93384699 89 52 C88.01 51.34 87.02 50.68 86 50 C83.98963365 50.26370109 81.98931559 50.60790999 80 51 C77.77279872 51.11253778 75.54250506 51.17454991 73.3125 51.1875 C72.19488281 51.20167969 71.07726562 51.21585938 69.92578125 51.23046875 C67 51 67 51 64 49 C64 48.34 64 47.68 64 47 C63.16807129 47.01571045 63.16807129 47.01571045 62.31933594 47.03173828 C59.79627041 47.07342004 57.27327747 47.09936438 54.75 47.125 C53.44095703 47.15013672 53.44095703 47.15013672 52.10546875 47.17578125 C51.26113281 47.18222656 50.41679687 47.18867187 49.546875 47.1953125 C48.77182617 47.20578613 47.99677734 47.21625977 47.19824219 47.22705078 C44.74116461 46.97326556 43.12688458 46.22444152 41 45 C41 43.68 41 42.36 41 41 C40.42419189 41.16008545 39.84838379 41.3201709 39.25512695 41.48510742 C35.58504445 42.3230639 31.93879209 42.2667897 28.1875 42.3125 C27.40568359 42.34150391 26.62386719 42.37050781 25.81835938 42.40039062 C20.07825576 42.46273093 16.59807954 41.52819959 12 38 C11.67 36.35 11.34 34.7 11 33 C7.37 33.33 3.74 33.66 0 34 C-0.144375 35.258125 -0.28875 36.51625 -0.4375 37.8125 C-0.73748686 40.42667123 -1.15813297 42.47439892 -2 45 C0.475 44.505 0.475 44.505 3 44 C3.33 44.99 3.66 45.98 4 47 C2.453125 47.1546875 2.453125 47.1546875 0.875 47.3125 C-2.08480889 48.11809315 -2.89406263 48.84083929 -4.625 51.44140625 C-5.63052775 53.4079462 -6.6213061 55.38209328 -7.59765625 57.36328125 C-10.21927947 62.2925171 -13.89090334 64.24077016 -19 66 C-29.62764911 67.37177536 -40.04652816 64.96027882 -48.75 58.5625 C-51.41287849 55.52977727 -52.25282118 54.04513891 -52 50 C-49.18982191 46.44595124 -46.01972114 44.06418112 -42 42 C-41.34 42 -40.68 42 -40 42 C-40 41.34 -40 40.68 -40 40 C-40.721875 39.773125 -41.44375 39.54625 -42.1875 39.3125 C-45.69277149 37.67670664 -47.62123641 36.05841033 -50 33 C-50.875 29.6875 -50.875 29.6875 -50 26 C-44.34468515 19.43755859 -37.33328926 15.79660394 -29.5 12.4375 C-28.45569824 11.97569336 -27.41139648 11.51388672 -26.33544922 11.03808594 C-23.23141836 9.67320643 -20.11742863 8.33394356 -17 7 C-15.64696777 6.4114624 -15.64696777 6.4114624 -14.26660156 5.81103516 C-11.89102469 4.77851318 -9.51035695 3.75969291 -7.125 2.75 C-6.42439453 2.4502124 -5.72378906 2.1504248 -5.00195312 1.84155273 C-3.35884128 1.16557586 -1.68166116 0.57339083 0 0 Z M29 30 C30.485 30.99 30.485 30.99 32 32 C32.99 32.721875 33.98 33.44375 35 34.1875 C35.99 34.785625 36.98 35.38375 38 36 C38.99 35.67 39.98 35.34 41 35 C40.50243908 32.24358584 40.50243908 32.24358584 39 30 C37.31391034 29.92794489 35.62499341 29.91613932 33.9375 29.9375 C33.01839844 29.94652344 32.09929687 29.95554687 31.15234375 29.96484375 C30.44207031 29.97644531 29.73179688 29.98804687 29 30 Z M15 32 C14.95710245 33.93109581 14.95710245 33.93109581 16 36 C21.8320961 39.54997154 27.31627474 39.32633017 34 39 C30.567177 35.16331547 28.06517613 33.09248897 23 32 C20.30782565 31.85881907 17.69988904 31.90690038 15 32 Z M46 33 C45.67 33.99 45.34 34.98 45 36 C46.13888672 36.09087891 46.13888672 36.09087891 47.30078125 36.18359375 C48.29464844 36.26738281 49.28851563 36.35117187 50.3125 36.4375 C51.29863281 36.51871094 52.28476563 36.59992187 53.30078125 36.68359375 C56 37 56 37 59 38 C59 36.68 59 35.36 59 34 C56.00519083 33.1276588 53.36424089 32.89170234 50.25 32.9375 C49.05117187 32.95103516 49.05117187 32.95103516 47.828125 32.96484375 C46.92320312 32.98224609 46.92320312 32.98224609 46 33 Z M91.375 35.375 C89.78468592 36.89968321 89.78468592 36.89968321 90 39 C90.99 39 91.98 39 93 39 C93.66 37.35 94.32 35.7 95 34 C92.89968321 33.78468592 92.89968321 33.78468592 91.375 35.375 Z M-18.875 37.5 C-20.19371094 37.85771484 -20.19371094 37.85771484 -21.5390625 38.22265625 C-23.69463633 38.80841001 -25.84807564 39.40100418 -28 40 C-28 40.66 -28 41.32 -28 42 C-20.52678392 44.15721701 -13.78961124 45.46530864 -6 45 C-5.49596232 43.70990357 -4.99690074 42.41786211 -4.5 41.125 C-4.2215625 40.40570313 -3.943125 39.68640625 -3.65625 38.9453125 C-2.89344982 37.02632539 -2.89344982 37.02632539 -3 35 C-8.64371364 34.62992042 -13.49764795 36.00179197 -18.875 37.5 Z M-42.1875 45.375 C-43.47720703 46.03628906 -43.47720703 46.03628906 -44.79296875 46.7109375 C-47.10584184 47.9365343 -47.10584184 47.9365343 -49 50 C-49.14091482 52.47326954 -49.14091482 52.47326954 -48 55 C-45.9551371 56.73026861 -44.34574941 57.80084908 -42 59 C-41.27425781 59.37511719 -40.54851563 59.75023438 -39.80078125 60.13671875 C-32.56716788 63.456493 -25.42124407 64.35307083 -17.63671875 62.41015625 C-12.44854381 60.28994163 -10.28903554 56.92762959 -7.8125 52.0234375 C-6.87579139 50.05408468 -6.87579139 50.05408468 -7 48 C-8.30195312 47.80664062 -9.60390625 47.61328125 -10.9453125 47.4140625 C-12.67191712 47.15131832 -14.39847731 46.88828205 -16.125 46.625 C-16.9809375 46.49867187 -17.836875 46.37234375 -18.71875 46.2421875 C-23.35673431 45.52865145 -27.54095376 44.48634875 -32 43 C-36.08736715 42.56184426 -38.57329084 43.48314467 -42.1875 45.375 Z M88 43 C88.33 44.65 88.66 46.3 89 48 C92.81413002 46.8321734 92.81413002 46.8321734 95.3125 43.875 C95.539375 43.25625 95.76625 42.6375 96 42 C93.2716232 42 90.68345937 42.53331141 88 43 Z " fill="#000000" transform="translate(83,21)"/>
<path d="M0 0 C4.02212077 3.46047327 5.98508021 7.43577717 8.25 12.125 C8.61351562 12.85332031 8.97703125 13.58164062 9.3515625 14.33203125 C12 19.71851504 12 19.71851504 12 22 C12.66 22 13.32 22 14 22 C14.2475 21.34 14.495 20.68 14.75 20 C15.74673623 17.60783306 16.81706038 15.36216994 18 13.0625 C19.66606553 9.7863189 20.9414587 6.52847101 22 3 C22.99 3.33 23.98 3.66 25 4 C24.09474967 12.51674286 20.85134902 17.99249586 16 25 C23.59 25 31.18 25 39 25 C39 29 39 29 37.79296875 30.64453125 C35.69459211 32.23088571 33.82456846 32.92295742 31.3125 33.6875 C30.50425781 33.93886719 29.69601562 34.19023438 28.86328125 34.44921875 C28.24839844 34.63097656 27.63351562 34.81273437 27 35 C27.721875 35.70125 28.44375 36.4025 29.1875 37.125 C35.06709483 43.03800162 39.08846524 47.6537626 39.125 56.3125 C39.09306101 57.87522911 39.05459773 59.43789839 39 61 C36.73828125 61.6953125 36.73828125 61.6953125 34 62 C26.62923069 57.498093 22.16868007 48.2730163 18 41 C13.30943469 41.7523481 9.00994332 43.32621949 4.5625 44.9375 C-10.30968704 50.27590076 -10.30968704 50.27590076 -15 50 C-15 49.01 -15 48.02 -15 47 C-11.37 46.01 -7.74 45.02 -4 44 C-4 38.06 -4 32.12 -4 26 C-5.65 25.67 -7.3 25.34 -9 25 C-9 24.01 -9 23.02 -9 22 C-7.35 22 -5.7 22 -4 22 C-3.95101562 20.90300781 -3.90203125 19.80601563 -3.8515625 18.67578125 C-3.77649409 17.22133075 -3.70094803 15.76690484 -3.625 14.3125 C-3.57859375 13.2306543 -3.57859375 13.2306543 -3.53125 12.12695312 C-3.03294837 3.03294837 -3.03294837 3.03294837 0 0 Z M0 7 C-0.33 12.61 -0.66 18.22 -1 24 C2.63 24 6.26 24 10 24 C6.04 15.585 6.04 15.585 2 7 C1.34 7 0.68 7 0 7 Z M-1 27 C-1.05416188 28.60379341 -1.09286638 30.20811406 -1.125 31.8125 C-1.14820313 32.70582031 -1.17140625 33.59914063 -1.1953125 34.51953125 C-1.18285827 37.25402714 -1.18285827 37.25402714 1 40 C2.03319813 38.7391988 3.05124379 37.46596742 4.0625 36.1875 C4.63097656 35.47980469 5.19945312 34.77210937 5.78515625 34.04296875 C6.18605469 33.36878906 6.58695313 32.69460937 7 32 C6.67 31.01 6.34 30.02 6 29 C2.48809191 27.77030122 2.48809191 27.77030122 -1 27 Z M16 28 C16.76050088 31.15144408 16.76050088 31.15144408 19.375 33 C25.05038341 34.56562301 29.01786888 31.72155561 34 29 C34 28.67 34 28.34 34 28 C28.06 28 22.12 28 16 28 Z M10 32 C7.03 35.96 7.03 35.96 4 40 C7.64160808 41.21386936 8.33165469 40.6674695 11.6875 39.0625 C12.49574219 38.68222656 13.30398437 38.30195312 14.13671875 37.91015625 C14.75160156 37.60980469 15.36648437 37.30945313 16 37 C15.67 35.68 15.34 34.36 15 33 C13.35 32.67 11.7 32.34 10 32 Z M21 38 C23.46165752 44.92341178 27.77762999 53.51926615 34.25390625 57.32421875 C34.83011719 57.54722656 35.40632813 57.77023438 36 58 C35.74917884 50.97700747 33.73115469 47.15296848 29 42 C25.54957528 38.61525782 25.54957528 38.61525782 21 38 Z " fill="#000000" transform="translate(238,28)"/>
<path d="M0 0 C3.6563215 2.03910237 5.31081625 3.0892672 7.25 6.8125 C7.56766565 10.50471227 7.48298021 14.11717497 7.25 17.8125 C3.30696552 19.66286255 0.15414065 20.08295532 -4.1875 20.0625 C-5.82525391 20.07023437 -5.82525391 20.07023437 -7.49609375 20.078125 C-10.86701578 19.80294769 -13.59875625 19.01025781 -16.75 17.8125 C-17.11685889 11.33132632 -17.11685889 11.33132632 -15.54296875 9.10546875 C-12.08607491 6.61258888 -7.8186995 7.31853648 -3.75 7.8125 C-0.72713116 9.19798155 0.91871425 10.48121425 3.25 12.8125 C2.4501421 8.09444165 2.4501421 8.09444165 -0.4375 4.59375 C-3.3896293 3.59640902 -5.8902329 3.61989637 -9 3.6875 C-10.61648437 3.71457031 -10.61648437 3.71457031 -12.265625 3.7421875 C-13.08546875 3.76539063 -13.9053125 3.78859375 -14.75 3.8125 C-14.75 2.4925 -14.75 1.1725 -14.75 -0.1875 C-9.50483528 -1.93588824 -5.17489039 -1.63871529 0 0 Z M-10.75 10.8125 C-11.41 12.1325 -12.07 13.4525 -12.75 14.8125 C-9.75519083 15.6848412 -7.11424089 15.92079766 -4 15.875 C-2.80117187 15.86146484 -2.80117187 15.86146484 -1.578125 15.84765625 C-0.67320312 15.83025391 -0.67320312 15.83025391 0.25 15.8125 C-1.97994059 13.24490279 -3.62431533 12.33108854 -6.9375 11.625 C-8.195625 11.356875 -9.45375 11.08875 -10.75 10.8125 Z " fill="#000000" transform="translate(219.75,52.1875)"/>
<path d="M0 0 C1.98 0.495 1.98 0.495 4 1 C4.33 5.29 4.66 9.58 5 14 C5.99 14.33 6.98 14.66 8 15 C8 17.64 8 20.28 8 23 C6.68 23 5.36 23 4 23 C0.7821446 16.10031935 -1.06657745 9.66972276 -1 2 C-0.67 1.34 -0.34 0.68 0 0 Z " fill="#000000" transform="translate(190,53)"/>
<path d="M0 0 C1.65 0.33 3.3 0.66 5 1 C4.67 2.32 4.34 3.64 4 5 C2.35 4.67 0.7 4.34 -1 4 C-0.67 2.68 -0.34 1.36 0 0 Z " fill="#000000" transform="translate(188,33)"/>
</svg>
